# xmcd
#
# Track frame offsets:
# 150
# 11315
# 24120
# 40907
# 53565
# 67547
# 79177
# 94335
# 106760
# 113187
# 125765
# 137700
# 151860
# 162542
# 179822
# 198907
# 212385
# 223977
# 246275
# 261230
# 275340
# 287075
# 301967
# 317202
# 330422
#
# Disc length: 4581 seconds
#
#
# Revision: 0
# Processed by: cddbd v1.5.2PL0 Copyright (c) Steve Scherf et al.
# Submitted via: FreeRIP 2.951 
#
DISCID=5f11e319
DTITLE=Cornelis Vreeswijk - Sambaliten
DYEAR=1981
DGENRE=Chanson
TTITLE0=The bananrepublikens sång
TTITLE1=Samba för pomperipossa
TTITLE2=Systemblues
TTITLE3=När det brinner i lögnfabriken
TTITLE4=Syndomblues
TTITLE5=Blues för Ira
TTITLE6=Siste jag åkte jumbojet blues
TTITLE7=Blues för Victor Jara
TTITLE8=Blues för  Almqvist
TTITLE9=Blues för en arbetarkvinna som hängt sig
TTITLE10=Blues för Fatumeh
TTITLE11=Bruna bönor complet
TTITLE12=Blues för Macbeth
TTITLE13=Pamflett nr 8
TTITLE14=Blues för ett torn
TTITLE15=Luchin
TTITLE16=Hommage
TTITLE17=Blues för Jaques Brel
TTITLE18=Till Julia
TTITLE19=Sambaliten
TTITLE20=Pamflett nr 53
TTITLE21=Pamflett nr 68
TTITLE22=Pamflett nr 62
TTITLE23=Hommage för Sveriges Radio
TTITLE24=Pamflett nr 31
EXTD=
EXTT0=
EXTT1=
EXTT2=
EXTT3=
EXTT4=
EXTT5=
EXTT6=
EXTT7=
EXTT8=
EXTT9=
EXTT10=
EXTT11=
EXTT12=
EXTT13=
EXTT14=
EXTT15=
EXTT16=
EXTT17=
EXTT18=
EXTT19=
EXTT20=
EXTT21=
EXTT22=
EXTT23=
EXTT24=
PLAYORDER=
